<svg
	xmlns="http://www.w3.org/2000/svg"
	xmlns:xlink="http://www.w3.org/1999/xlink" width="500" zoomAndPan="magnify" viewBox="0 0 375 374.999991" height="500" preserveAspectRatio="xMidYMid meet" version="1.0">
	<defs>
		<g/>
		<clipPath id="8268c4493f">
			<path d="M 67 48 L 305 48 L 305 307 L 67 307 Z M 67 48 " clip-rule="nonzero"/>
		</clipPath>
		<clipPath id="31f837df80">
			<path d="M 40.640625 56.449219 L 287.4375 18.144531 L 331.03125 299.035156 L 84.234375 337.335938 Z M 40.640625 56.449219 " clip-rule="nonzero"/>
		</clipPath>
		<clipPath id="f53fb308fa">
			<path d="M 40.640625 56.449219 L 287.4375 18.144531 L 331.03125 299.035156 L 84.234375 337.335938 Z M 40.640625 56.449219 " clip-rule="nonzero"/>
		</clipPath>
	</defs>


	<g clip-path="url(#8268c4493f)">
		<g clip-path="url(#31f837df80)">
			<g clip-path="url(#f53fb308fa)">
				<path fill="#ffffff" d="M 135.644531 59.058594 C 137.566406 58.25 139.503906 57.484375 141.464844 56.765625 C 143.421875 56.046875 145.398438 55.378906 147.386719 54.757812 C 149.378906 54.136719 151.382812 53.5625 153.402344 53.039062 C 155.421875 52.515625 157.453125 52.039062 159.492188 51.613281 C 161.535156 51.1875 163.585938 50.8125 165.648438 50.488281 C 167.707031 50.160156 169.773438 49.886719 171.847656 49.660156 C 173.921875 49.4375 176 49.261719 178.082031 49.136719 C 180.164062 49.011719 182.246094 48.9375 184.332031 48.914062 C 186.417969 48.890625 188.503906 48.921875 190.585938 49 C 192.671875 49.078125 194.753906 49.207031 196.832031 49.382812 C 198.910156 49.5625 200.980469 49.792969 203.046875 50.074219 C 205.117188 50.355469 207.175781 50.683594 209.226562 51.0625 C 211.277344 51.445312 213.316406 51.875 215.347656 52.351562 C 217.375 52.832031 219.394531 53.359375 221.398438 53.9375 C 223.402344 54.515625 225.390625 55.140625 227.367188 55.816406 C 229.339844 56.488281 231.296875 57.210938 233.234375 57.980469 C 235.171875 58.75 237.09375 59.5625 238.992188 60.425781 C 240.890625 61.289062 242.769531 62.195312 244.625 63.148438 C 246.480469 64.105469 248.308594 65.101562 250.117188 66.144531 C 251.921875 67.1875 253.703125 68.273438 255.457031 69.402344 C 257.210938 70.53125 258.9375 71.703125 260.632812 72.914062 C 262.332031 74.128906 263.996094 75.378906 265.632812 76.675781 C 267.269531 77.96875 268.875 79.300781 270.445312 80.671875 C 272.015625 82.042969 273.554688 83.453125 275.054688 84.898438 C 276.558594 86.347656 278.027344 87.828125 279.457031 89.347656 C 280.886719 90.863281 282.28125 92.417969 283.636719 94 C 284.992188 95.585938 286.308594 97.203125 287.585938 98.855469 C 288.863281 100.503906 290.097656 102.183594 291.292969 103.890625 C 292.488281 105.601562 293.640625 107.339844 294.753906 109.105469 C 295.863281 110.871094 296.933594 112.660156 297.957031 114.480469 C 298.980469 116.296875 299.957031 118.136719 300.894531 120.003906 C 301.828125 121.867188 302.714844 123.753906 303.558594 125.664062 C 303.871094 126.367188 304.179688 127.085938 304.488281 127.820312 L 302.648438 128.800781 C 302.324219 128.03125 301.996094 127.265625 301.660156 126.5 C 300.824219 124.609375 299.941406 122.738281 299.015625 120.890625 C 298.089844 119.042969 297.117188 117.214844 296.101562 115.414062 C 295.085938 113.613281 294.027344 111.839844 292.925781 110.089844 C 291.824219 108.34375 290.679688 106.621094 289.492188 104.929688 C 288.304688 103.234375 287.078125 101.574219 285.808594 99.941406 C 284.539062 98.308594 283.234375 96.707031 281.886719 95.136719 C 280.539062 93.570312 279.15625 92.035156 277.734375 90.535156 C 276.3125 89.03125 274.855469 87.566406 273.359375 86.136719 C 271.867188 84.707031 270.339844 83.316406 268.777344 81.960938 C 267.214844 80.605469 265.621094 79.289062 263.996094 78.015625 C 262.371094 76.738281 260.714844 75.5 259.027344 74.304688 C 257.339844 73.109375 255.625 71.957031 253.882812 70.84375 C 252.140625 69.734375 250.371094 68.664062 248.574219 67.640625 C 246.777344 66.613281 244.960938 65.632812 243.117188 64.699219 C 241.273438 63.761719 239.40625 62.871094 237.519531 62.027344 C 235.632812 61.183594 233.726562 60.386719 231.800781 59.632812 C 229.875 58.882812 227.933594 58.179688 225.972656 57.523438 C 224.011719 56.867188 222.035156 56.261719 220.046875 55.699219 C 218.054688 55.140625 216.050781 54.632812 214.039062 54.171875 C 212.023438 53.707031 209.996094 53.296875 207.960938 52.933594 C 205.925781 52.574219 203.882812 52.261719 201.832031 52 C 199.78125 51.738281 197.726562 51.527344 195.664062 51.363281 C 193.605469 51.203125 191.539062 51.09375 189.472656 51.03125 C 187.40625 50.972656 185.339844 50.960938 183.273438 51.003906 C 181.207031 51.042969 179.144531 51.136719 177.082031 51.277344 C 175.019531 51.417969 172.960938 51.613281 170.90625 51.855469 C 168.855469 52.097656 166.808594 52.390625 164.769531 52.734375 C 162.730469 53.078125 160.703125 53.46875 158.683594 53.910156 C 156.664062 54.355469 154.65625 54.84375 152.660156 55.386719 C 150.664062 55.925781 148.683594 56.515625 146.71875 57.152344 C 144.75 57.789062 142.800781 58.476562 140.871094 59.210938 C 138.9375 59.941406 137.023438 60.722656 135.128906 61.550781 C 135.316406 60.726562 135.492188 59.902344 135.644531 59.066406 Z M 69.09375 226.949219 C 69.359375 227.578125 69.628906 228.203125 69.90625 228.832031 C 70.742188 230.726562 71.625 232.601562 72.554688 234.453125 C 73.484375 236.304688 74.457031 238.136719 75.476562 239.941406 C 76.496094 241.746094 77.558594 243.523438 78.664062 245.277344 C 79.769531 247.03125 80.917969 248.753906 82.109375 250.449219 C 83.300781 252.148438 84.53125 253.8125 85.804688 255.449219 C 87.078125 257.085938 88.390625 258.691406 89.742188 260.261719 C 91.09375 261.832031 92.480469 263.371094 93.90625 264.875 C 95.335938 266.378906 96.796875 267.84375 98.296875 269.277344 C 99.792969 270.707031 101.328125 272.101562 102.894531 273.457031 C 104.460938 274.816406 106.0625 276.132812 107.691406 277.410156 C 109.324219 278.6875 110.988281 279.925781 112.679688 281.121094 C 114.371094 282.316406 116.09375 283.472656 117.84375 284.582031 C 119.589844 285.695312 121.367188 286.761719 123.167969 287.789062 C 124.96875 288.8125 126.796875 289.792969 128.644531 290.726562 C 130.496094 291.664062 132.367188 292.550781 134.257812 293.394531 C 136.152344 294.238281 138.066406 295.035156 139.996094 295.785156 C 141.929688 296.53125 143.878906 297.234375 145.847656 297.886719 C 147.8125 298.542969 149.792969 299.148438 151.792969 299.703125 C 153.789062 300.257812 155.796875 300.765625 157.816406 301.222656 C 159.839844 301.683594 161.871094 302.089844 163.910156 302.449219 C 165.953125 302.804688 168 303.113281 170.058594 303.371094 C 172.113281 303.628906 174.175781 303.835938 176.242188 303.992188 C 178.308594 304.148438 180.378906 304.253906 182.449219 304.308594 C 184.523438 304.363281 186.59375 304.367188 188.664062 304.320312 C 190.738281 304.273438 192.808594 304.175781 194.875 304.027344 C 196.941406 303.878906 199.003906 303.679688 201.0625 303.429688 C 203.117188 303.179688 205.167969 302.878906 207.210938 302.527344 C 209.253906 302.175781 211.285156 301.777344 213.308594 301.328125 C 215.332031 300.875 217.34375 300.375 219.339844 299.828125 C 221.339844 299.277344 223.324219 298.679688 225.292969 298.035156 C 227.261719 297.386719 229.214844 296.695312 231.148438 295.953125 C 233.085938 295.210938 235 294.421875 236.894531 293.585938 C 236.699219 294.410156 236.511719 295.242188 236.347656 296.078125 C 234.425781 296.898438 232.484375 297.671875 230.523438 298.398438 C 228.5625 299.125 226.585938 299.804688 224.589844 300.433594 C 222.597656 301.0625 220.589844 301.644531 218.570312 302.175781 C 216.546875 302.707031 214.511719 303.191406 212.46875 303.625 C 210.421875 304.054688 208.367188 304.4375 206.304688 304.773438 C 204.242188 305.105469 202.167969 305.386719 200.09375 305.617188 C 198.015625 305.851562 195.933594 306.03125 193.847656 306.164062 C 191.757812 306.292969 189.671875 306.375 187.582031 306.402344 C 185.492188 306.429688 183.402344 306.410156 181.3125 306.335938 C 179.222656 306.261719 177.136719 306.140625 175.050781 305.964844 C 172.96875 305.789062 170.890625 305.566406 168.820312 305.289062 C 166.746094 305.015625 164.683594 304.6875 162.625 304.3125 C 160.570312 303.933594 158.523438 303.507812 156.488281 303.035156 C 154.453125 302.558594 152.429688 302.03125 150.417969 301.457031 C 148.410156 300.882812 146.414062 300.261719 144.433594 299.589844 C 142.453125 298.917969 140.492188 298.199219 138.546875 297.429688 C 136.601562 296.664062 134.675781 295.847656 132.773438 294.988281 C 130.867188 294.125 128.984375 293.21875 127.125 292.265625 C 125.261719 291.316406 123.425781 290.316406 121.613281 289.273438 C 119.800781 288.234375 118.015625 287.148438 116.253906 286.019531 C 114.496094 284.890625 112.765625 283.71875 111.0625 282.503906 C 109.359375 281.289062 107.6875 280.035156 106.046875 278.742188 C 104.40625 277.445312 102.796875 276.113281 101.21875 274.738281 C 99.644531 273.367188 98.101562 271.957031 96.59375 270.507812 C 95.085938 269.058594 93.613281 267.574219 92.179688 266.054688 C 90.742188 264.535156 89.34375 262.980469 87.984375 261.390625 C 86.625 259.804688 85.304688 258.183594 84.023438 256.53125 C 82.742188 254.878906 81.503906 253.195312 80.304688 251.484375 C 79.105469 249.769531 77.949219 248.03125 76.835938 246.261719 C 75.71875 244.492188 74.648438 242.695312 73.621094 240.875 C 72.597656 239.054688 71.613281 237.207031 70.675781 235.339844 C 69.738281 233.46875 68.847656 231.578125 68.003906 229.667969 C 67.75 229.089844 67.503906 228.507812 67.253906 227.933594 Z M 69.09375 226.949219 " fill-opacity="1" fill-rule="evenodd"/>
			</g>
		</g>
	</g>
	<g fill="#e8e3e3" fill-opacity="1">
		<g transform="translate(13.954191, 178.694963)">
			<g>
				<path d="M 25.84375 -2.765625 C 25.414062 -2.316406 24.660156 -1.847656 23.578125 -1.359375 C 22.492188 -0.878906 21.296875 -0.484375 19.984375 -0.171875 C 18.679688 0.140625 17.5 0.296875 16.4375 0.296875 C 13.519531 0.296875 10.957031 -0.265625 8.75 -1.390625 C 6.550781 -2.523438 4.851562 -4.09375 3.65625 -6.09375 C 2.457031 -8.101562 1.859375 -10.390625 1.859375 -12.953125 C 1.859375 -16.171875 2.492188 -18.890625 3.765625 -21.109375 C 5.035156 -23.335938 6.738281 -25.003906 8.875 -26.109375 C 11.019531 -27.222656 13.390625 -27.78125 15.984375 -27.78125 C 17.648438 -27.78125 19.21875 -27.59375 20.6875 -27.21875 C 22.15625 -26.84375 23.453125 -26.359375 24.578125 -25.765625 L 22.8125 -20.71875 C 22.09375 -21.125 21.101562 -21.492188 19.84375 -21.828125 C 18.59375 -22.160156 17.539062 -22.328125 16.6875 -22.328125 C 13.707031 -22.328125 11.425781 -21.578125 9.84375 -20.078125 C 8.257812 -18.585938 7.46875 -16.375 7.46875 -13.4375 C 7.46875 -11.75 7.851562 -10.273438 8.625 -9.015625 C 9.394531 -7.753906 10.46875 -6.785156 11.84375 -6.109375 C 13.226562 -5.441406 14.804688 -5.109375 16.578125 -5.109375 C 18.273438 -5.109375 19.535156 -5.347656 20.359375 -5.828125 L 20.359375 -9.15625 L 15.609375 -9.15625 L 15.609375 -14.375 L 25.84375 -14.375 Z M 25.84375 -2.765625 "/>
			</g>
		</g>
	</g>
	<g fill="#e8e3e3" fill-opacity="1">
		<g transform="translate(59.549771, 178.694963)">
			<g>
				<path d="M 22.296875 -27.484375 L 22.296875 -22.25 L 8.96875 -22.25 L 8.96875 -16.390625 L 20.765625 -16.390625 L 20.765625 -11.171875 L 8.96875 -11.171875 L 8.96875 -5.234375 L 22.8125 -5.234375 L 22.8125 0 L 3.546875 0 L 3.546875 -27.484375 Z M 22.296875 -27.484375 "/>
			</g>
		</g>
	</g>
	<g fill="#e8e3e3" fill-opacity="1">
		<g transform="translate(101.560917, 178.694963)">
			<g>
				<path d="M 28.3125 -27.484375 L 28.3125 1.125 L 28.15625 1.125 L 8.921875 -16.25 L 9.03125 0 L 3.546875 0 L 3.546875 -28.5625 L 3.765625 -28.5625 L 22.96875 -10.9375 L 22.859375 -27.484375 Z M 28.3125 -27.484375 "/>
			</g>
		</g>
	</g>
	<g fill="#e8e3e3" fill-opacity="1">
		<g transform="translate(150.554243, 178.694963)">
			<g>
				<path d="M 22.296875 -27.484375 L 22.296875 -22.25 L 8.96875 -22.25 L 8.96875 -16.390625 L 20.765625 -16.390625 L 20.765625 -11.171875 L 8.96875 -11.171875 L 8.96875 -5.234375 L 22.8125 -5.234375 L 22.8125 0 L 3.546875 0 L 3.546875 -27.484375 Z M 22.296875 -27.484375 "/>
			</g>
		</g>
	</g>
	<g fill="#e8e3e3" fill-opacity="1">
		<g transform="translate(192.565385, 178.694963)">
			<g>
				<path d="M 31.859375 -28.609375 L 31.859375 0 L 26.4375 0 L 26.4375 -13.109375 L 17.484375 -0.375 L 17.40625 -0.375 L 8.78125 -12.28125 L 8.78125 0 L 3.546875 0 L 3.546875 -28.609375 L 3.578125 -28.609375 L 17.515625 -8.84375 L 31.78125 -28.609375 Z M 31.859375 -28.609375 "/>
			</g>
		</g>
	</g>
	<g fill="#e8e3e3" fill-opacity="1">
		<g transform="translate(245.105798, 178.694963)">
			<g>
				<path d="M 22.296875 -27.484375 L 22.296875 -22.25 L 8.96875 -22.25 L 8.96875 -16.390625 L 20.765625 -16.390625 L 20.765625 -11.171875 L 8.96875 -11.171875 L 8.96875 -5.234375 L 22.8125 -5.234375 L 22.8125 0 L 3.546875 0 L 3.546875 -27.484375 Z M 22.296875 -27.484375 "/>
			</g>
		</g>
	</g>
	<g fill="#e8e3e3" fill-opacity="1">
		<g transform="translate(287.11694, 178.694963)">
			<g>
				<path d="M 3.546875 -27.484375 L 11.765625 -27.484375 C 15.273438 -27.484375 18.160156 -26.804688 20.421875 -25.453125 C 22.691406 -24.097656 24.34375 -22.34375 25.375 -20.1875 C 26.40625 -18.03125 26.921875 -15.71875 26.921875 -13.25 C 26.921875 -10.613281 26.296875 -8.285156 25.046875 -6.265625 C 23.804688 -4.253906 22.132812 -2.707031 20.03125 -1.625 C 17.925781 -0.539062 15.617188 0 13.109375 0 L 3.546875 0 Z M 12.171875 -5.234375 C 14.984375 -5.234375 17.210938 -5.953125 18.859375 -7.390625 C 20.503906 -8.835938 21.328125 -10.914062 21.328125 -13.625 C 21.328125 -15.820312 20.867188 -17.566406 19.953125 -18.859375 C 19.046875 -20.148438 17.988281 -21.046875 16.78125 -21.546875 C 15.570312 -22.046875 14.4375 -22.296875 13.375 -22.296875 L 8.96875 -22.296875 L 8.96875 -5.234375 Z M 12.171875 -5.234375 "/>
			</g>
		</g>
	</g>
	<g fill="#e8e3e3" fill-opacity="1">
		<g transform="translate(333.048548, 178.694963)">
			<g>
				<path d="M 22.296875 -27.484375 L 22.296875 -22.25 L 8.96875 -22.25 L 8.96875 -16.390625 L 20.765625 -16.390625 L 20.765625 -11.171875 L 8.96875 -11.171875 L 8.96875 -5.234375 L 22.8125 -5.234375 L 22.8125 0 L 3.546875 0 L 3.546875 -27.484375 Z M 22.296875 -27.484375 "/>
			</g>
		</g>
	</g>
	<g fill="#e8e3e3" fill-opacity="1">
		<g transform="translate(15.137183, 202.532602)">
			<g>
				<path d="M 8.203125 -0.8125 C 7.960938 -0.582031 7.539062 -0.375 6.9375 -0.1875 C 6.332031 0 5.785156 0.09375 5.296875 0.09375 C 4.367188 0.09375 3.550781 -0.0859375 2.84375 -0.453125 C 2.144531 -0.828125 1.609375 -1.335938 1.234375 -1.984375 C 0.859375 -2.628906 0.671875 -3.363281 0.671875 -4.1875 C 0.671875 -5.175781 0.875 -6.023438 1.28125 -6.734375 C 1.6875 -7.441406 2.234375 -7.976562 2.921875 -8.34375 C 3.609375 -8.707031 4.363281 -8.890625 5.1875 -8.890625 C 5.6875 -8.890625 6.164062 -8.832031 6.625 -8.71875 C 7.082031 -8.601562 7.484375 -8.445312 7.828125 -8.25 L 7.375 -6.9375 C 7.125 -7.082031 6.800781 -7.207031 6.40625 -7.3125 C 6.007812 -7.414062 5.660156 -7.46875 5.359375 -7.46875 C 4.359375 -7.46875 3.566406 -7.191406 2.984375 -6.640625 C 2.398438 -6.085938 2.109375 -5.3125 2.109375 -4.3125 C 2.109375 -3.71875 2.242188 -3.191406 2.515625 -2.734375 C 2.785156 -2.273438 3.164062 -1.921875 3.65625 -1.671875 C 4.144531 -1.421875 4.703125 -1.296875 5.328125 -1.296875 C 5.609375 -1.296875 5.875 -1.320312 6.125 -1.375 C 6.382812 -1.4375 6.601562 -1.515625 6.78125 -1.609375 L 6.78125 -3.0625 L 5.140625 -3.0625 L 5.140625 -4.421875 L 8.203125 -4.421875 Z M 8.203125 -0.8125 "/>
			</g>
		</g>
	</g>
	<g fill="#e8e3e3" fill-opacity="1">
		<g transform="translate(28.338248, 202.532602)">
			<g>
				<path d="M 3.390625 -1.03125 C 3.773438 -1.03125 4.160156 -1.160156 4.546875 -1.421875 L 5.15625 -0.421875 C 4.882812 -0.253906 4.585938 -0.117188 4.265625 -0.015625 C 3.953125 0.0859375 3.65625 0.140625 3.375 0.140625 C 2.78125 0.140625 2.269531 0.0234375 1.84375 -0.203125 C 1.414062 -0.441406 1.082031 -0.765625 0.84375 -1.171875 C 0.613281 -1.585938 0.5 -2.0625 0.5 -2.59375 C 0.5 -3.09375 0.628906 -3.550781 0.890625 -3.96875 C 1.148438 -4.394531 1.5 -4.726562 1.9375 -4.96875 C 2.382812 -5.21875 2.867188 -5.34375 3.390625 -5.34375 C 4.085938 -5.34375 4.664062 -5.140625 5.125 -4.734375 C 5.582031 -4.328125 5.882812 -3.75 6.03125 -3 L 2.109375 -1.671875 C 2.242188 -1.460938 2.421875 -1.300781 2.640625 -1.1875 C 2.867188 -1.082031 3.117188 -1.03125 3.390625 -1.03125 Z M 3.28125 -4.28125 C 2.851562 -4.28125 2.503906 -4.128906 2.234375 -3.828125 C 1.960938 -3.523438 1.828125 -3.140625 1.828125 -2.671875 C 1.828125 -2.578125 1.832031 -2.507812 1.84375 -2.46875 L 4.53125 -3.421875 C 4.425781 -3.671875 4.269531 -3.875 4.0625 -4.03125 C 3.863281 -4.195312 3.601562 -4.28125 3.28125 -4.28125 Z M 3.28125 -4.28125 "/>
			</g>
		</g>
	</g>
	<g fill="#e8e3e3" fill-opacity="1">
		<g transform="translate(38.849398, 202.532602)">
			<g>
				<path d="M 4.265625 -5.328125 C 4.734375 -5.328125 5.128906 -5.179688 5.453125 -4.890625 C 5.773438 -4.609375 5.9375 -4.242188 5.9375 -3.796875 L 5.9375 0 L 4.59375 0 L 4.59375 -3.3125 C 4.570312 -3.570312 4.488281 -3.78125 4.34375 -3.9375 C 4.207031 -4.09375 4 -4.171875 3.71875 -4.171875 C 3.300781 -4.171875 2.957031 -3.992188 2.6875 -3.640625 C 2.414062 -3.285156 2.28125 -2.828125 2.28125 -2.265625 L 2.28125 0 L 0.9375 0 L 0.9375 -5.109375 L 2.15625 -5.109375 L 2.25 -4.203125 C 2.4375 -4.554688 2.703125 -4.832031 3.046875 -5.03125 C 3.398438 -5.226562 3.804688 -5.328125 4.265625 -5.328125 Z M 4.265625 -5.328125 "/>
			</g>
		</g>
	</g>
	<g fill="#e8e3e3" fill-opacity="1">
		<g transform="translate(49.794795, 202.532602)">
			<g>
				<path d="M 3.390625 -1.03125 C 3.773438 -1.03125 4.160156 -1.160156 4.546875 -1.421875 L 5.15625 -0.421875 C 4.882812 -0.253906 4.585938 -0.117188 4.265625 -0.015625 C 3.953125 0.0859375 3.65625 0.140625 3.375 0.140625 C 2.78125 0.140625 2.269531 0.0234375 1.84375 -0.203125 C 1.414062 -0.441406 1.082031 -0.765625 0.84375 -1.171875 C 0.613281 -1.585938 0.5 -2.0625 0.5 -2.59375 C 0.5 -3.09375 0.628906 -3.550781 0.890625 -3.96875 C 1.148438 -4.394531 1.5 -4.726562 1.9375 -4.96875 C 2.382812 -5.21875 2.867188 -5.34375 3.390625 -5.34375 C 4.085938 -5.34375 4.664062 -5.140625 5.125 -4.734375 C 5.582031 -4.328125 5.882812 -3.75 6.03125 -3 L 2.109375 -1.671875 C 2.242188 -1.460938 2.421875 -1.300781 2.640625 -1.1875 C 2.867188 -1.082031 3.117188 -1.03125 3.390625 -1.03125 Z M 3.28125 -4.28125 C 2.851562 -4.28125 2.503906 -4.128906 2.234375 -3.828125 C 1.960938 -3.523438 1.828125 -3.140625 1.828125 -2.671875 C 1.828125 -2.578125 1.832031 -2.507812 1.84375 -2.46875 L 4.53125 -3.421875 C 4.425781 -3.671875 4.269531 -3.875 4.0625 -4.03125 C 3.863281 -4.195312 3.601562 -4.28125 3.28125 -4.28125 Z M 3.28125 -4.28125 "/>
			</g>
		</g>
	</g>
	<g fill="#e8e3e3" fill-opacity="1">
		<g transform="translate(60.305944, 202.532602)">
			<g>
				<path d="M 2.25 -3.921875 C 2.382812 -4.203125 2.578125 -4.445312 2.828125 -4.65625 C 3.078125 -4.875 3.332031 -5.039062 3.59375 -5.15625 C 3.851562 -5.28125 4.070312 -5.34375 4.25 -5.34375 L 4.1875 -3.984375 C 3.820312 -4.015625 3.492188 -3.945312 3.203125 -3.78125 C 2.910156 -3.613281 2.679688 -3.390625 2.515625 -3.109375 C 2.359375 -2.828125 2.28125 -2.523438 2.28125 -2.203125 L 2.28125 0 L 0.9375 0 L 0.9375 -5.109375 L 2.15625 -5.109375 Z M 2.25 -3.921875 "/>
			</g>
		</g>
	</g>
	<g fill="#e8e3e3" fill-opacity="1">
		<g transform="translate(69.092157, 202.532602)">
			<g>
				<path d="M 2.28125 -5.109375 L 2.28125 0 L 0.9375 0 L 0.9375 -5.109375 Z M 0.875 -6.9375 C 0.875 -7.132812 0.953125 -7.300781 1.109375 -7.4375 C 1.273438 -7.582031 1.457031 -7.65625 1.65625 -7.65625 C 1.851562 -7.65625 2.03125 -7.582031 2.1875 -7.4375 C 2.34375 -7.300781 2.421875 -7.132812 2.421875 -6.9375 C 2.421875 -6.726562 2.34375 -6.554688 2.1875 -6.421875 C 2.03125 -6.285156 1.851562 -6.21875 1.65625 -6.21875 C 1.457031 -6.21875 1.273438 -6.285156 1.109375 -6.421875 C 0.953125 -6.554688 0.875 -6.726562 0.875 -6.9375 Z M 0.875 -6.9375 "/>
			</g>
		</g>
	</g>
	<g fill="#e8e3e3" fill-opacity="1">
		<g transform="translate(76.382637, 202.532602)">
			<g>
				<path d="M 5.15625 -0.46875 C 4.925781 -0.28125 4.648438 -0.128906 4.328125 -0.015625 C 4.003906 0.0859375 3.675781 0.140625 3.34375 0.140625 C 2.78125 0.140625 2.28125 0.03125 1.84375 -0.1875 C 1.414062 -0.40625 1.082031 -0.71875 0.84375 -1.125 C 0.613281 -1.53125 0.5 -2.007812 0.5 -2.5625 C 0.5 -3.101562 0.625 -3.578125 0.875 -3.984375 C 1.125 -4.390625 1.457031 -4.695312 1.875 -4.90625 C 2.289062 -5.125 2.738281 -5.234375 3.21875 -5.234375 C 4.019531 -5.234375 4.679688 -5.019531 5.203125 -4.59375 L 4.53125 -3.703125 C 4.375 -3.828125 4.191406 -3.929688 3.984375 -4.015625 C 3.785156 -4.097656 3.566406 -4.140625 3.328125 -4.140625 C 2.921875 -4.140625 2.570312 -3.988281 2.28125 -3.6875 C 2 -3.382812 1.859375 -3.007812 1.859375 -2.5625 C 1.859375 -2.113281 2.007812 -1.738281 2.3125 -1.4375 C 2.613281 -1.132812 3 -0.984375 3.46875 -0.984375 C 3.863281 -0.984375 4.203125 -1.09375 4.484375 -1.3125 Z M 5.15625 -0.46875 "/>
			</g>
		</g>
	</g>
	<g fill="#e8e3e3" fill-opacity="1">
		<g transform="translate(86.073534, 202.532602)">
			<g/></g>
	</g>
	<g fill="#e8e3e3" fill-opacity="1">
		<g transform="translate(94.015381, 202.532602)">
			<g>
				<path d="M 8.96875 -8.796875 L 8.96875 0.3125 L 8.9375 0.3125 L 2.59375 -5.828125 L 2.640625 0 L 1.203125 0 L 1.203125 -9.09375 L 1.28125 -9.09375 L 7.59375 -2.875 L 7.578125 -8.796875 Z M 8.96875 -8.796875 "/>
			</g>
		</g>
	</g>
	<g fill="#e8e3e3" fill-opacity="1">
		<g transform="translate(108.277947, 202.532602)">
			<g>
				<path d="M 3.390625 -1.03125 C 3.773438 -1.03125 4.160156 -1.160156 4.546875 -1.421875 L 5.15625 -0.421875 C 4.882812 -0.253906 4.585938 -0.117188 4.265625 -0.015625 C 3.953125 0.0859375 3.65625 0.140625 3.375 0.140625 C 2.78125 0.140625 2.269531 0.0234375 1.84375 -0.203125 C 1.414062 -0.441406 1.082031 -0.765625 0.84375 -1.171875 C 0.613281 -1.585938 0.5 -2.0625 0.5 -2.59375 C 0.5 -3.09375 0.628906 -3.550781 0.890625 -3.96875 C 1.148438 -4.394531 1.5 -4.726562 1.9375 -4.96875 C 2.382812 -5.21875 2.867188 -5.34375 3.390625 -5.34375 C 4.085938 -5.34375 4.664062 -5.140625 5.125 -4.734375 C 5.582031 -4.328125 5.882812 -3.75 6.03125 -3 L 2.109375 -1.671875 C 2.242188 -1.460938 2.421875 -1.300781 2.640625 -1.1875 C 2.867188 -1.082031 3.117188 -1.03125 3.390625 -1.03125 Z M 3.28125 -4.28125 C 2.851562 -4.28125 2.503906 -4.128906 2.234375 -3.828125 C 1.960938 -3.523438 1.828125 -3.140625 1.828125 -2.671875 C 1.828125 -2.578125 1.832031 -2.507812 1.84375 -2.46875 L 4.53125 -3.421875 C 4.425781 -3.671875 4.269531 -3.875 4.0625 -4.03125 C 3.863281 -4.195312 3.601562 -4.28125 3.28125 -4.28125 Z M 3.28125 -4.28125 "/>
			</g>
		</g>
	</g>
	<g fill="#e8e3e3" fill-opacity="1">
		<g transform="translate(118.789096, 202.532602)">
			<g>
				<path d="M 5.84375 -5.109375 L 5.84375 0 L 4.625 0 L 4.546875 -0.921875 C 4.367188 -0.578125 4.101562 -0.300781 3.75 -0.09375 C 3.40625 0.113281 3.015625 0.21875 2.578125 0.21875 C 2.109375 0.21875 1.71875 0.078125 1.40625 -0.203125 C 1.09375 -0.492188 0.9375 -0.863281 0.9375 -1.3125 L 0.9375 -5.109375 L 2.28125 -5.109375 L 2.28125 -1.796875 C 2.300781 -1.234375 2.578125 -0.945312 3.109375 -0.9375 C 3.503906 -0.9375 3.832031 -1.117188 4.09375 -1.484375 C 4.363281 -1.847656 4.5 -2.300781 4.5 -2.84375 L 4.5 -5.109375 Z M 5.84375 -5.109375 "/>
			</g>
		</g>
	</g>
	<g fill="#e8e3e3" fill-opacity="1">
		<g transform="translate(129.650064, 202.532602)">
			<g>
				<path d="M 2.25 -3.921875 C 2.382812 -4.203125 2.578125 -4.445312 2.828125 -4.65625 C 3.078125 -4.875 3.332031 -5.039062 3.59375 -5.15625 C 3.851562 -5.28125 4.070312 -5.34375 4.25 -5.34375 L 4.1875 -3.984375 C 3.820312 -4.015625 3.492188 -3.945312 3.203125 -3.78125 C 2.910156 -3.613281 2.679688 -3.390625 2.515625 -3.109375 C 2.359375 -2.828125 2.28125 -2.523438 2.28125 -2.203125 L 2.28125 0 L 0.9375 0 L 0.9375 -5.109375 L 2.15625 -5.109375 Z M 2.25 -3.921875 "/>
			</g>
		</g>
	</g>
	<g fill="#e8e3e3" fill-opacity="1">
		<g transform="translate(138.436277, 202.532602)">
			<g>
				<path d="M 0.5 -2.609375 C 0.5 -3.117188 0.625 -3.582031 0.875 -4 C 1.125 -4.414062 1.460938 -4.742188 1.890625 -4.984375 C 2.328125 -5.222656 2.820312 -5.34375 3.375 -5.34375 C 3.9375 -5.34375 4.429688 -5.222656 4.859375 -4.984375 C 5.285156 -4.742188 5.613281 -4.414062 5.84375 -4 C 6.082031 -3.582031 6.203125 -3.117188 6.203125 -2.609375 C 6.203125 -2.085938 6.082031 -1.617188 5.84375 -1.203125 C 5.613281 -0.796875 5.285156 -0.46875 4.859375 -0.21875 C 4.429688 0.0195312 3.9375 0.140625 3.375 0.140625 C 2.820312 0.140625 2.328125 0.03125 1.890625 -0.1875 C 1.460938 -0.414062 1.125 -0.738281 0.875 -1.15625 C 0.625 -1.570312 0.5 -2.054688 0.5 -2.609375 Z M 1.875 -2.59375 C 1.875 -2.132812 2.015625 -1.75 2.296875 -1.4375 C 2.578125 -1.132812 2.925781 -0.984375 3.34375 -0.984375 C 3.78125 -0.984375 4.132812 -1.132812 4.40625 -1.4375 C 4.6875 -1.738281 4.828125 -2.125 4.828125 -2.59375 C 4.828125 -3.0625 4.6875 -3.453125 4.40625 -3.765625 C 4.132812 -4.078125 3.78125 -4.234375 3.34375 -4.234375 C 2.925781 -4.234375 2.578125 -4.070312 2.296875 -3.75 C 2.015625 -3.425781 1.875 -3.039062 1.875 -2.59375 Z M 1.875 -2.59375 "/>
			</g>
		</g>
	</g>
	<g fill="#e8e3e3" fill-opacity="1">
		<g transform="translate(149.212792, 202.532602)">
			<g/></g>
	</g>
	<g fill="#e8e3e3" fill-opacity="1">
		<g transform="translate(157.154639, 202.532602)">
			<g>
				<path d="M 10.078125 -9.109375 L 10.078125 0 L 8.6875 0 L 8.6875 -5.078125 L 5.609375 -0.71875 L 5.578125 -0.71875 L 2.578125 -4.875 L 2.578125 0 L 1.203125 0 L 1.203125 -9.109375 L 1.21875 -9.109375 L 5.609375 -2.90625 L 10.0625 -9.109375 Z M 10.078125 -9.109375 "/>
			</g>
		</g>
	</g>
	<g fill="#e8e3e3" fill-opacity="1">
		<g transform="translate(172.514885, 202.532602)">
			<g>
				<path d="M 3.390625 -1.03125 C 3.773438 -1.03125 4.160156 -1.160156 4.546875 -1.421875 L 5.15625 -0.421875 C 4.882812 -0.253906 4.585938 -0.117188 4.265625 -0.015625 C 3.953125 0.0859375 3.65625 0.140625 3.375 0.140625 C 2.78125 0.140625 2.269531 0.0234375 1.84375 -0.203125 C 1.414062 -0.441406 1.082031 -0.765625 0.84375 -1.171875 C 0.613281 -1.585938 0.5 -2.0625 0.5 -2.59375 C 0.5 -3.09375 0.628906 -3.550781 0.890625 -3.96875 C 1.148438 -4.394531 1.5 -4.726562 1.9375 -4.96875 C 2.382812 -5.21875 2.867188 -5.34375 3.390625 -5.34375 C 4.085938 -5.34375 4.664062 -5.140625 5.125 -4.734375 C 5.582031 -4.328125 5.882812 -3.75 6.03125 -3 L 2.109375 -1.671875 C 2.242188 -1.460938 2.421875 -1.300781 2.640625 -1.1875 C 2.867188 -1.082031 3.117188 -1.03125 3.390625 -1.03125 Z M 3.28125 -4.28125 C 2.851562 -4.28125 2.503906 -4.128906 2.234375 -3.828125 C 1.960938 -3.523438 1.828125 -3.140625 1.828125 -2.671875 C 1.828125 -2.578125 1.832031 -2.507812 1.84375 -2.46875 L 4.53125 -3.421875 C 4.425781 -3.671875 4.269531 -3.875 4.0625 -4.03125 C 3.863281 -4.195312 3.601562 -4.28125 3.28125 -4.28125 Z M 3.28125 -4.28125 "/>
			</g>
		</g>
	</g>
	<g fill="#e8e3e3" fill-opacity="1">
		<g transform="translate(183.026034, 202.532602)">
			<g>
				<path d="M 2.78125 -7.359375 L 2.78125 -5.109375 L 4.109375 -5.109375 L 4.109375 -4.046875 L 2.78125 -4.046875 L 2.78125 0 L 1.421875 0 L 1.421875 -4.046875 L 0.546875 -4.046875 L 0.546875 -5.109375 L 1.421875 -5.109375 L 1.421875 -7.359375 Z M 2.78125 -7.359375 "/>
			</g>
		</g>
	</g>
	<g fill="#e8e3e3" fill-opacity="1">
		<g transform="translate(191.607187, 202.532602)">
			<g>
				<path d="M 6.28125 -5.109375 L 6.28125 0 L 4.921875 0 L 4.921875 -0.734375 C 4.742188 -0.515625 4.492188 -0.3125 4.171875 -0.125 C 3.859375 0.0507812 3.492188 0.140625 3.078125 0.140625 C 2.585938 0.140625 2.148438 0.0351562 1.765625 -0.171875 C 1.378906 -0.378906 1.070312 -0.679688 0.84375 -1.078125 C 0.613281 -1.484375 0.5 -1.972656 0.5 -2.546875 C 0.5 -3.097656 0.613281 -3.585938 0.84375 -4.015625 C 1.082031 -4.441406 1.394531 -4.769531 1.78125 -5 C 2.175781 -5.226562 2.609375 -5.34375 3.078125 -5.34375 C 3.910156 -5.34375 4.53125 -5.035156 4.9375 -4.421875 L 5.03125 -5.109375 Z M 3.453125 -0.984375 C 3.828125 -0.984375 4.140625 -1.078125 4.390625 -1.265625 C 4.640625 -1.453125 4.816406 -1.71875 4.921875 -2.0625 L 4.921875 -3.171875 C 4.828125 -3.484375 4.640625 -3.738281 4.359375 -3.9375 C 4.085938 -4.132812 3.769531 -4.234375 3.40625 -4.234375 C 2.976562 -4.234375 2.613281 -4.082031 2.3125 -3.78125 C 2.019531 -3.476562 1.875 -3.09375 1.875 -2.625 C 1.875 -2.3125 1.945312 -2.03125 2.09375 -1.78125 C 2.238281 -1.53125 2.429688 -1.332031 2.671875 -1.1875 C 2.910156 -1.050781 3.171875 -0.984375 3.453125 -0.984375 Z M 3.453125 -0.984375 "/>
			</g>
		</g>
	</g>
	<g fill="#e8e3e3" fill-opacity="1">
		<g transform="translate(202.902396, 202.532602)">
			<g>
				<path d="M 6.375 -9.421875 L 6.375 0 L 5.03125 0 L 5.03125 -0.6875 C 4.457031 -0.132812 3.785156 0.140625 3.015625 0.140625 C 2.546875 0.140625 2.117188 0.0234375 1.734375 -0.203125 C 1.347656 -0.429688 1.046875 -0.753906 0.828125 -1.171875 C 0.609375 -1.585938 0.5 -2.078125 0.5 -2.640625 C 0.5 -3.191406 0.613281 -3.671875 0.84375 -4.078125 C 1.082031 -4.492188 1.40625 -4.804688 1.8125 -5.015625 C 2.21875 -5.234375 2.675781 -5.34375 3.1875 -5.34375 C 3.5625 -5.34375 3.910156 -5.269531 4.234375 -5.125 C 4.566406 -4.988281 4.832031 -4.796875 5.03125 -4.546875 L 5.03125 -9.421875 Z M 3.453125 -1.015625 C 3.835938 -1.015625 4.164062 -1.109375 4.4375 -1.296875 C 4.71875 -1.492188 4.914062 -1.765625 5.03125 -2.109375 L 5.03125 -3.203125 C 4.925781 -3.515625 4.726562 -3.769531 4.4375 -3.96875 C 4.15625 -4.175781 3.828125 -4.28125 3.453125 -4.28125 C 3.171875 -4.28125 2.910156 -4.207031 2.671875 -4.0625 C 2.429688 -3.925781 2.238281 -3.734375 2.09375 -3.484375 C 1.945312 -3.234375 1.875 -2.957031 1.875 -2.65625 C 1.875 -2.351562 1.945312 -2.078125 2.09375 -1.828125 C 2.238281 -1.578125 2.429688 -1.378906 2.671875 -1.234375 C 2.910156 -1.085938 3.171875 -1.015625 3.453125 -1.015625 Z M 3.453125 -1.015625 "/>
			</g>
		</g>
	</g>
	<g fill="#e8e3e3" fill-opacity="1">
		<g transform="translate(214.282038, 202.532602)">
			<g>
				<path d="M 6.28125 -5.109375 L 6.28125 0 L 4.921875 0 L 4.921875 -0.734375 C 4.742188 -0.515625 4.492188 -0.3125 4.171875 -0.125 C 3.859375 0.0507812 3.492188 0.140625 3.078125 0.140625 C 2.585938 0.140625 2.148438 0.0351562 1.765625 -0.171875 C 1.378906 -0.378906 1.070312 -0.679688 0.84375 -1.078125 C 0.613281 -1.484375 0.5 -1.972656 0.5 -2.546875 C 0.5 -3.097656 0.613281 -3.585938 0.84375 -4.015625 C 1.082031 -4.441406 1.394531 -4.769531 1.78125 -5 C 2.175781 -5.226562 2.609375 -5.34375 3.078125 -5.34375 C 3.910156 -5.34375 4.53125 -5.035156 4.9375 -4.421875 L 5.03125 -5.109375 Z M 3.453125 -0.984375 C 3.828125 -0.984375 4.140625 -1.078125 4.390625 -1.265625 C 4.640625 -1.453125 4.816406 -1.71875 4.921875 -2.0625 L 4.921875 -3.171875 C 4.828125 -3.484375 4.640625 -3.738281 4.359375 -3.9375 C 4.085938 -4.132812 3.769531 -4.234375 3.40625 -4.234375 C 2.976562 -4.234375 2.613281 -4.082031 2.3125 -3.78125 C 2.019531 -3.476562 1.875 -3.09375 1.875 -2.625 C 1.875 -2.3125 1.945312 -2.03125 2.09375 -1.78125 C 2.238281 -1.53125 2.429688 -1.332031 2.671875 -1.1875 C 2.910156 -1.050781 3.171875 -0.984375 3.453125 -0.984375 Z M 3.453125 -0.984375 "/>
			</g>
		</g>
	</g>
	<g fill="#e8e3e3" fill-opacity="1">
		<g transform="translate(225.577247, 202.532602)">
			<g>
				<path d="M 2.78125 -7.359375 L 2.78125 -5.109375 L 4.109375 -5.109375 L 4.109375 -4.046875 L 2.78125 -4.046875 L 2.78125 0 L 1.421875 0 L 1.421875 -4.046875 L 0.546875 -4.046875 L 0.546875 -5.109375 L 1.421875 -5.109375 L 1.421875 -7.359375 Z M 2.78125 -7.359375 "/>
			</g>
		</g>
	</g>
	<g fill="#e8e3e3" fill-opacity="1">
		<g transform="translate(234.1584, 202.532602)">
			<g>
				<path d="M 6.28125 -5.109375 L 6.28125 0 L 4.921875 0 L 4.921875 -0.734375 C 4.742188 -0.515625 4.492188 -0.3125 4.171875 -0.125 C 3.859375 0.0507812 3.492188 0.140625 3.078125 0.140625 C 2.585938 0.140625 2.148438 0.0351562 1.765625 -0.171875 C 1.378906 -0.378906 1.070312 -0.679688 0.84375 -1.078125 C 0.613281 -1.484375 0.5 -1.972656 0.5 -2.546875 C 0.5 -3.097656 0.613281 -3.585938 0.84375 -4.015625 C 1.082031 -4.441406 1.394531 -4.769531 1.78125 -5 C 2.175781 -5.226562 2.609375 -5.34375 3.078125 -5.34375 C 3.910156 -5.34375 4.53125 -5.035156 4.9375 -4.421875 L 5.03125 -5.109375 Z M 3.453125 -0.984375 C 3.828125 -0.984375 4.140625 -1.078125 4.390625 -1.265625 C 4.640625 -1.453125 4.816406 -1.71875 4.921875 -2.0625 L 4.921875 -3.171875 C 4.828125 -3.484375 4.640625 -3.738281 4.359375 -3.9375 C 4.085938 -4.132812 3.769531 -4.234375 3.40625 -4.234375 C 2.976562 -4.234375 2.613281 -4.082031 2.3125 -3.78125 C 2.019531 -3.476562 1.875 -3.09375 1.875 -2.625 C 1.875 -2.3125 1.945312 -2.03125 2.09375 -1.78125 C 2.238281 -1.53125 2.429688 -1.332031 2.671875 -1.1875 C 2.910156 -1.050781 3.171875 -0.984375 3.453125 -0.984375 Z M 3.453125 -0.984375 "/>
			</g>
		</g>
	</g>
	<g fill="#e8e3e3" fill-opacity="1">
		<g transform="translate(245.453622, 202.532602)">
			<g/></g>
	</g>
	<g fill="#e8e3e3" fill-opacity="1">
		<g transform="translate(253.395481, 202.532602)">
			<g>
				<path d="M 1.203125 -8.796875 L 3.703125 -8.796875 C 4.804688 -8.796875 5.71875 -8.578125 6.4375 -8.140625 C 7.164062 -7.703125 7.691406 -7.140625 8.015625 -6.453125 C 8.347656 -5.773438 8.515625 -5.050781 8.515625 -4.28125 C 8.515625 -3.425781 8.3125 -2.671875 7.90625 -2.015625 C 7.507812 -1.367188 6.976562 -0.867188 6.3125 -0.515625 C 5.644531 -0.171875 4.914062 0 4.125 0 L 1.203125 0 Z M 3.875 -1.359375 C 4.5 -1.359375 5.050781 -1.472656 5.53125 -1.703125 C 6.007812 -1.929688 6.382812 -2.273438 6.65625 -2.734375 C 6.925781 -3.191406 7.0625 -3.738281 7.0625 -4.375 C 7.0625 -5.0625 6.914062 -5.632812 6.625 -6.09375 C 6.332031 -6.5625 5.957031 -6.90625 5.5 -7.125 C 5.039062 -7.34375 4.570312 -7.453125 4.09375 -7.453125 L 2.625 -7.453125 L 2.625 -1.359375 Z M 3.875 -1.359375 "/>
			</g>
		</g>
	</g>
	<g fill="#e8e3e3" fill-opacity="1">
		<g transform="translate(266.656877, 202.532602)">
			<g>
				<path d="M 3.390625 -1.03125 C 3.773438 -1.03125 4.160156 -1.160156 4.546875 -1.421875 L 5.15625 -0.421875 C 4.882812 -0.253906 4.585938 -0.117188 4.265625 -0.015625 C 3.953125 0.0859375 3.65625 0.140625 3.375 0.140625 C 2.78125 0.140625 2.269531 0.0234375 1.84375 -0.203125 C 1.414062 -0.441406 1.082031 -0.765625 0.84375 -1.171875 C 0.613281 -1.585938 0.5 -2.0625 0.5 -2.59375 C 0.5 -3.09375 0.628906 -3.550781 0.890625 -3.96875 C 1.148438 -4.394531 1.5 -4.726562 1.9375 -4.96875 C 2.382812 -5.21875 2.867188 -5.34375 3.390625 -5.34375 C 4.085938 -5.34375 4.664062 -5.140625 5.125 -4.734375 C 5.582031 -4.328125 5.882812 -3.75 6.03125 -3 L 2.109375 -1.671875 C 2.242188 -1.460938 2.421875 -1.300781 2.640625 -1.1875 C 2.867188 -1.082031 3.117188 -1.03125 3.390625 -1.03125 Z M 3.28125 -4.28125 C 2.851562 -4.28125 2.503906 -4.128906 2.234375 -3.828125 C 1.960938 -3.523438 1.828125 -3.140625 1.828125 -2.671875 C 1.828125 -2.578125 1.832031 -2.507812 1.84375 -2.46875 L 4.53125 -3.421875 C 4.425781 -3.671875 4.269531 -3.875 4.0625 -4.03125 C 3.863281 -4.195312 3.601562 -4.28125 3.28125 -4.28125 Z M 3.28125 -4.28125 "/>
			</g>
		</g>
	</g>
	<g fill="#e8e3e3" fill-opacity="1">
		<g transform="translate(277.168026, 202.532602)">
			<g>
				<path d="M 2.46875 0.109375 C 2.070312 0.109375 1.695312 0.0390625 1.34375 -0.09375 C 1 -0.238281 0.710938 -0.441406 0.484375 -0.703125 L 1.046875 -1.46875 C 1.472656 -1.039062 1.910156 -0.828125 2.359375 -0.828125 C 2.597656 -0.828125 2.796875 -0.875 2.953125 -0.96875 C 3.109375 -1.0625 3.1875 -1.203125 3.1875 -1.390625 C 3.1875 -1.578125 3.101562 -1.71875 2.9375 -1.8125 C 2.78125 -1.914062 2.601562 -2 2.40625 -2.0625 C 2.207031 -2.125 2.082031 -2.160156 2.03125 -2.171875 C 1.582031 -2.304688 1.25 -2.503906 1.03125 -2.765625 C 0.820312 -3.035156 0.71875 -3.347656 0.71875 -3.703125 C 0.71875 -3.984375 0.785156 -4.242188 0.921875 -4.484375 C 1.066406 -4.734375 1.28125 -4.929688 1.5625 -5.078125 C 1.851562 -5.234375 2.203125 -5.3125 2.609375 -5.3125 C 2.992188 -5.3125 3.328125 -5.265625 3.609375 -5.171875 C 3.898438 -5.085938 4.171875 -4.953125 4.421875 -4.765625 L 3.90625 -3.953125 C 3.757812 -4.085938 3.582031 -4.191406 3.375 -4.265625 C 3.164062 -4.347656 2.976562 -4.390625 2.8125 -4.390625 C 2.601562 -4.390625 2.429688 -4.34375 2.296875 -4.25 C 2.160156 -4.15625 2.09375 -4.03125 2.09375 -3.875 C 2.082031 -3.6875 2.148438 -3.546875 2.296875 -3.453125 C 2.441406 -3.367188 2.675781 -3.273438 3 -3.171875 C 3.132812 -3.128906 3.222656 -3.097656 3.265625 -3.078125 C 3.660156 -2.953125 3.972656 -2.773438 4.203125 -2.546875 C 4.429688 -2.316406 4.546875 -2.015625 4.546875 -1.640625 C 4.546875 -1.140625 4.363281 -0.722656 4 -0.390625 C 3.644531 -0.0546875 3.132812 0.109375 2.46875 0.109375 Z M 2.46875 0.109375 "/>
			</g>
		</g>
	</g>
	<g fill="#e8e3e3" fill-opacity="1">
		<g transform="translate(286.352307, 202.532602)">
			<g>
				<path d="M 5.15625 -0.46875 C 4.925781 -0.28125 4.648438 -0.128906 4.328125 -0.015625 C 4.003906 0.0859375 3.675781 0.140625 3.34375 0.140625 C 2.78125 0.140625 2.28125 0.03125 1.84375 -0.1875 C 1.414062 -0.40625 1.082031 -0.71875 0.84375 -1.125 C 0.613281 -1.53125 0.5 -2.007812 0.5 -2.5625 C 0.5 -3.101562 0.625 -3.578125 0.875 -3.984375 C 1.125 -4.390625 1.457031 -4.695312 1.875 -4.90625 C 2.289062 -5.125 2.738281 -5.234375 3.21875 -5.234375 C 4.019531 -5.234375 4.679688 -5.019531 5.203125 -4.59375 L 4.53125 -3.703125 C 4.375 -3.828125 4.191406 -3.929688 3.984375 -4.015625 C 3.785156 -4.097656 3.566406 -4.140625 3.328125 -4.140625 C 2.921875 -4.140625 2.570312 -3.988281 2.28125 -3.6875 C 2 -3.382812 1.859375 -3.007812 1.859375 -2.5625 C 1.859375 -2.113281 2.007812 -1.738281 2.3125 -1.4375 C 2.613281 -1.132812 3 -0.984375 3.46875 -0.984375 C 3.863281 -0.984375 4.203125 -1.09375 4.484375 -1.3125 Z M 5.15625 -0.46875 "/>
			</g>
		</g>
	</g>
	<g fill="#e8e3e3" fill-opacity="1">
		<g transform="translate(296.043218, 202.532602)">
			<g>
				<path d="M 2.25 -3.921875 C 2.382812 -4.203125 2.578125 -4.445312 2.828125 -4.65625 C 3.078125 -4.875 3.332031 -5.039062 3.59375 -5.15625 C 3.851562 -5.28125 4.070312 -5.34375 4.25 -5.34375 L 4.1875 -3.984375 C 3.820312 -4.015625 3.492188 -3.945312 3.203125 -3.78125 C 2.910156 -3.613281 2.679688 -3.390625 2.515625 -3.109375 C 2.359375 -2.828125 2.28125 -2.523438 2.28125 -2.203125 L 2.28125 0 L 0.9375 0 L 0.9375 -5.109375 L 2.15625 -5.109375 Z M 2.25 -3.921875 "/>
			</g>
		</g>
	</g>
	<g fill="#e8e3e3" fill-opacity="1">
		<g transform="translate(304.829444, 202.532602)">
			<g>
				<path d="M 2.28125 -5.109375 L 2.28125 0 L 0.9375 0 L 0.9375 -5.109375 Z M 0.875 -6.9375 C 0.875 -7.132812 0.953125 -7.300781 1.109375 -7.4375 C 1.273438 -7.582031 1.457031 -7.65625 1.65625 -7.65625 C 1.851562 -7.65625 2.03125 -7.582031 2.1875 -7.4375 C 2.34375 -7.300781 2.421875 -7.132812 2.421875 -6.9375 C 2.421875 -6.726562 2.34375 -6.554688 2.1875 -6.421875 C 2.03125 -6.285156 1.851562 -6.21875 1.65625 -6.21875 C 1.457031 -6.21875 1.273438 -6.285156 1.109375 -6.421875 C 0.953125 -6.554688 0.875 -6.726562 0.875 -6.9375 Z M 0.875 -6.9375 "/>
			</g>
		</g>
	</g>
	<g fill="#e8e3e3" fill-opacity="1">
		<g transform="translate(312.119933, 202.532602)">
			<g>
				<path d="M 4.28125 -5.34375 C 4.757812 -5.34375 5.191406 -5.226562 5.578125 -5 C 5.960938 -4.769531 6.265625 -4.445312 6.484375 -4.03125 C 6.703125 -3.613281 6.8125 -3.128906 6.8125 -2.578125 C 6.8125 -2.023438 6.691406 -1.539062 6.453125 -1.125 C 6.210938 -0.71875 5.878906 -0.40625 5.453125 -0.1875 C 5.035156 0.03125 4.5625 0.140625 4.03125 0.140625 C 3.695312 0.140625 3.367188 0.0703125 3.046875 -0.0625 C 2.734375 -0.207031 2.476562 -0.394531 2.28125 -0.625 L 2.28125 2.453125 L 0.9375 2.453125 L 0.9375 -5.203125 L 2.109375 -5.203125 L 2.21875 -4.4375 C 2.488281 -4.71875 2.796875 -4.9375 3.140625 -5.09375 C 3.492188 -5.257812 3.875 -5.34375 4.28125 -5.34375 Z M 3.765625 -0.9375 C 4.066406 -0.9375 4.34375 -1.003906 4.59375 -1.140625 C 4.84375 -1.285156 5.046875 -1.476562 5.203125 -1.71875 C 5.359375 -1.96875 5.4375 -2.242188 5.4375 -2.546875 C 5.4375 -3.023438 5.285156 -3.414062 4.984375 -3.71875 C 4.679688 -4.03125 4.304688 -4.1875 3.859375 -4.1875 C 3.460938 -4.1875 3.128906 -4.085938 2.859375 -3.890625 C 2.597656 -3.703125 2.40625 -3.4375 2.28125 -3.09375 L 2.28125 -2.0625 C 2.363281 -1.726562 2.539062 -1.457031 2.8125 -1.25 C 3.082031 -1.039062 3.398438 -0.9375 3.765625 -0.9375 Z M 3.765625 -0.9375 "/>
			</g>
		</g>
	</g>
	<g fill="#e8e3e3" fill-opacity="1">
		<g transform="translate(323.499576, 202.532602)">
			<g>
				<path d="M 2.78125 -7.359375 L 2.78125 -5.109375 L 4.109375 -5.109375 L 4.109375 -4.046875 L 2.78125 -4.046875 L 2.78125 0 L 1.421875 0 L 1.421875 -4.046875 L 0.546875 -4.046875 L 0.546875 -5.109375 L 1.421875 -5.109375 L 1.421875 -7.359375 Z M 2.78125 -7.359375 "/>
			</g>
		</g>
	</g>
	<g fill="#e8e3e3" fill-opacity="1">
		<g transform="translate(332.080742, 202.532602)">
			<g>
				<path d="M 0.5 -2.609375 C 0.5 -3.117188 0.625 -3.582031 0.875 -4 C 1.125 -4.414062 1.460938 -4.742188 1.890625 -4.984375 C 2.328125 -5.222656 2.820312 -5.34375 3.375 -5.34375 C 3.9375 -5.34375 4.429688 -5.222656 4.859375 -4.984375 C 5.285156 -4.742188 5.613281 -4.414062 5.84375 -4 C 6.082031 -3.582031 6.203125 -3.117188 6.203125 -2.609375 C 6.203125 -2.085938 6.082031 -1.617188 5.84375 -1.203125 C 5.613281 -0.796875 5.285156 -0.46875 4.859375 -0.21875 C 4.429688 0.0195312 3.9375 0.140625 3.375 0.140625 C 2.820312 0.140625 2.328125 0.03125 1.890625 -0.1875 C 1.460938 -0.414062 1.125 -0.738281 0.875 -1.15625 C 0.625 -1.570312 0.5 -2.054688 0.5 -2.609375 Z M 1.875 -2.59375 C 1.875 -2.132812 2.015625 -1.75 2.296875 -1.4375 C 2.578125 -1.132812 2.925781 -0.984375 3.34375 -0.984375 C 3.78125 -0.984375 4.132812 -1.132812 4.40625 -1.4375 C 4.6875 -1.738281 4.828125 -2.125 4.828125 -2.59375 C 4.828125 -3.0625 4.6875 -3.453125 4.40625 -3.765625 C 4.132812 -4.078125 3.78125 -4.234375 3.34375 -4.234375 C 2.925781 -4.234375 2.578125 -4.070312 2.296875 -3.75 C 2.015625 -3.425781 1.875 -3.039062 1.875 -2.59375 Z M 1.875 -2.59375 "/>
			</g>
		</g>
	</g>
	<g fill="#e8e3e3" fill-opacity="1">
		<g transform="translate(342.85727, 202.532602)">
			<g>
				<path d="M 2.25 -3.921875 C 2.382812 -4.203125 2.578125 -4.445312 2.828125 -4.65625 C 3.078125 -4.875 3.332031 -5.039062 3.59375 -5.15625 C 3.851562 -5.28125 4.070312 -5.34375 4.25 -5.34375 L 4.1875 -3.984375 C 3.820312 -4.015625 3.492188 -3.945312 3.203125 -3.78125 C 2.910156 -3.613281 2.679688 -3.390625 2.515625 -3.109375 C 2.359375 -2.828125 2.28125 -2.523438 2.28125 -2.203125 L 2.28125 0 L 0.9375 0 L 0.9375 -5.109375 L 2.15625 -5.109375 Z M 2.25 -3.921875 "/>
			</g>
		</g>
	</g>
	<g fill="#e8e3e3" fill-opacity="1">
		<g transform="translate(351.643495, 202.532602)">
			<g>
				<path d="M 2.46875 0.109375 C 2.070312 0.109375 1.695312 0.0390625 1.34375 -0.09375 C 1 -0.238281 0.710938 -0.441406 0.484375 -0.703125 L 1.046875 -1.46875 C 1.472656 -1.039062 1.910156 -0.828125 2.359375 -0.828125 C 2.597656 -0.828125 2.796875 -0.875 2.953125 -0.96875 C 3.109375 -1.0625 3.1875 -1.203125 3.1875 -1.390625 C 3.1875 -1.578125 3.101562 -1.71875 2.9375 -1.8125 C 2.78125 -1.914062 2.601562 -2 2.40625 -2.0625 C 2.207031 -2.125 2.082031 -2.160156 2.03125 -2.171875 C 1.582031 -2.304688 1.25 -2.503906 1.03125 -2.765625 C 0.820312 -3.035156 0.71875 -3.347656 0.71875 -3.703125 C 0.71875 -3.984375 0.785156 -4.242188 0.921875 -4.484375 C 1.066406 -4.734375 1.28125 -4.929688 1.5625 -5.078125 C 1.851562 -5.234375 2.203125 -5.3125 2.609375 -5.3125 C 2.992188 -5.3125 3.328125 -5.265625 3.609375 -5.171875 C 3.898438 -5.085938 4.171875 -4.953125 4.421875 -4.765625 L 3.90625 -3.953125 C 3.757812 -4.085938 3.582031 -4.191406 3.375 -4.265625 C 3.164062 -4.347656 2.976562 -4.390625 2.8125 -4.390625 C 2.601562 -4.390625 2.429688 -4.34375 2.296875 -4.25 C 2.160156 -4.15625 2.09375 -4.03125 2.09375 -3.875 C 2.082031 -3.6875 2.148438 -3.546875 2.296875 -3.453125 C 2.441406 -3.367188 2.675781 -3.273438 3 -3.171875 C 3.132812 -3.128906 3.222656 -3.097656 3.265625 -3.078125 C 3.660156 -2.953125 3.972656 -2.773438 4.203125 -2.546875 C 4.429688 -2.316406 4.546875 -2.015625 4.546875 -1.640625 C 4.546875 -1.140625 4.363281 -0.722656 4 -0.390625 C 3.644531 -0.0546875 3.132812 0.109375 2.46875 0.109375 Z M 2.46875 0.109375 "/>
			</g>
		</g>
	</g>
</svg>